<?xml version="1.0" standalone="no"?>
<!DOCTYPE svg PUBLIC "-//W3C//DTD SVG 20010904//EN"
 "http://www.w3.org/TR/2001/REC-SVG-20010904/DTD/svg10.dtd">
<svg version="1.0" xmlns="http://www.w3.org/2000/svg"
 width="318.000000pt" height="318.000000pt" viewBox="0 0 318.000000 318.000000"
 preserveAspectRatio="xMidYMid meet">
<metadata>
Created by potrace 1.11, written by Peter Selinger 2001-2013
</metadata>
<g transform="translate(0.000000,318.000000) scale(0.100000,-0.100000)"
fill="#000000" stroke="none">
<path d="M523 1985 c290 -217 527 -397 527 -400 0 -3 -237 -183 -527 -400
l-526 -395 1591 0 1592 0 0 115 0 115 -1400 2 -1401 3 144 108 144 107 1257 0
1256 0 0 345 0 345 -1256 0 -1257 0 -144 108 -144 107 1401 3 1400 2 0 115 0
115 -1592 0 -1591 0 526 -395z"/>
<path d="M397 1924 l-28 -56 -24 26 c-37 40 -74 35 -114 -14 l-32 -40 25 0
c29 0 56 -33 56 -71 0 -25 -2 -26 -102 -39 -57 -7 -109 -15 -116 -19 -10 -6
91 -85 180 -142 5 -3 4 -17 -2 -34 -8 -22 -8 -35 1 -52 10 -18 10 -38 0 -94
-7 -38 -11 -72 -8 -75 3 -3 20 4 38 15 30 18 51 21 159 21 108 0 129 -3 155
-20 37 -24 45 -25 45 -2 0 9 12 65 26 125 19 77 30 107 41 107 11 0 8 6 -8 19
-27 22 -29 21 60 84 72 52 76 48 -64 67 -145 20 -129 9 -193 136 -31 63 -59
114 -62 114 -3 0 -18 -25 -33 -56z m-100 -241 c-3 -10 -5 -2 -5 17 0 19 2 27
5 18 2 -10 2 -26 0 -35z"/>
</g>
</svg>
